<svg width="72" height="15" viewBox="0 0 72 15" fill="none" xmlns="http://www.w3.org/2000/svg">
<path d="M0.367249 14L3.14717 0.941463H7.5561C8.61258 0.941463 9.39757 1.17755 9.91106 1.64972C10.4246 2.11599 10.6813 2.73867 10.6813 3.51776C10.6813 3.98403 10.6075 4.45621 10.46 4.93428C10.3124 5.41236 10.1029 5.85502 9.83138 6.26227C9.55988 6.66952 9.23526 7.00595 8.85752 7.27154C8.48569 7.53714 8.07549 7.69355 7.62692 7.74077C7.89842 7.76437 8.14926 7.83225 8.37945 7.94439C8.61553 8.05063 8.8044 8.21884 8.94606 8.44903C9.09361 8.67331 9.16739 8.97137 9.16739 9.34321C9.16739 9.50257 9.14083 9.7239 9.08771 10.0072C9.03459 10.2905 8.96967 10.6063 8.89294 10.9545C8.81621 11.2968 8.73948 11.6421 8.66275 11.9903C8.58602 12.3327 8.5211 12.6484 8.46798 12.9376C8.41486 13.2268 8.3883 13.4541 8.3883 13.6193C8.3883 13.7079 8.39125 13.7875 8.39715 13.8584C8.40896 13.9233 8.42371 13.9705 8.44142 14H6.91866C6.88915 13.9233 6.87439 13.8052 6.87439 13.6459C6.87439 13.4924 6.898 13.2829 6.94522 13.0173C6.99834 12.7458 7.06031 12.4537 7.13114 12.1408C7.20787 11.8221 7.28164 11.5064 7.35247 11.1935C7.4233 10.8748 7.48232 10.5827 7.52954 10.3171C7.58265 10.0515 7.60921 9.84489 7.60921 9.69734C7.60921 9.24877 7.44986 8.92415 7.13114 8.72348C6.81242 8.5228 6.37271 8.42247 5.812 8.42247H2.36809L3.14717 7.90013L1.84574 14H0.367249ZM3.20914 7.59911L2.61598 7.09448H6.10416C6.65897 7.09448 7.16065 6.95283 7.60921 6.66952C8.05778 6.38622 8.41486 6.01143 8.68046 5.54516C8.94606 5.07889 9.07886 4.56835 9.07886 4.01354C9.07886 3.47054 8.92245 3.04559 8.60963 2.73867C8.29682 2.42586 7.78923 2.26945 7.08687 2.26945H3.69607L4.51943 1.41954L3.20914 7.59911Z" fill="#41197F"/>
<path d="M15.3775 2.26945L16.2363 1.41069L14.988 7.30696L14.7224 6.78461H19.7333L19.4589 8.1126H14.4479L14.926 7.59026L13.6689 13.5308L13.1642 12.672H19.4677L19.1844 14H12.0487L14.8286 0.941463H21.9644L21.6811 2.26945H15.3775Z" fill="#41197F"/>
<path d="M32.3496 9.4583C32.2375 9.98359 32.0309 10.5236 31.7299 11.0784C31.4348 11.6273 31.0453 12.1379 30.5613 12.6101C30.0832 13.0763 29.5225 13.4541 28.8792 13.7433C28.2358 14.0325 27.5128 14.1771 26.7101 14.1771C25.7835 14.1771 25.0221 13.9735 24.426 13.5662C23.8358 13.159 23.399 12.6012 23.1157 11.8929C22.8383 11.1788 22.6996 10.3672 22.6996 9.4583C22.6996 8.35459 22.8501 7.2863 23.1511 6.25342C23.458 5.22054 23.8977 4.2939 24.4702 3.4735C25.0487 2.64719 25.7451 1.99205 26.5596 1.50807C27.38 1.02409 28.3037 0.782104 29.3307 0.782104C30.2868 0.782104 31.0541 0.976876 31.6325 1.36642C32.2169 1.75006 32.6389 2.23994 32.8986 2.83606C33.1582 3.43218 33.2881 4.04601 33.2881 4.67754C33.2881 4.8369 33.2792 4.98445 33.2615 5.1202C33.2438 5.25595 33.2202 5.37695 33.1907 5.48318H31.6768C31.6945 5.39465 31.7122 5.27661 31.7299 5.12905C31.7535 4.9756 31.7653 4.83395 31.7653 4.7041C31.7653 4.23192 31.6709 3.80402 31.482 3.42038C31.2991 3.03673 31.0158 2.72982 30.6321 2.49964C30.2485 2.26945 29.7586 2.15436 29.1625 2.15436C28.3657 2.15436 27.6604 2.36684 27.0465 2.79179C26.4327 3.21675 25.9163 3.78336 25.4972 4.49162C25.0782 5.19988 24.7624 5.98782 24.5499 6.85544C24.3374 7.71716 24.2312 8.58773 24.2312 9.46715C24.2312 10.5532 24.4466 11.3824 24.8775 11.9549C25.3084 12.5274 25.9694 12.8137 26.8606 12.8137C27.3859 12.8137 27.8699 12.7192 28.3126 12.5304C28.7611 12.3356 29.1566 12.0759 29.4989 11.7513C29.8471 11.4267 30.1334 11.0666 30.3577 10.6712C30.5879 10.2698 30.7472 9.86555 30.8357 9.4583H32.3496Z" fill="#41197F"/>
<path d="M34.5652 14L37.3362 0.941463H38.8324L36.0702 14H34.5652Z" fill="#41197F"/>
<path d="M41.31 14H39.7961L42.576 0.941463H46.1527C47.0439 0.941463 47.764 1.09492 48.3129 1.40183C48.8618 1.70875 49.2632 2.1219 49.5169 2.64129C49.7766 3.15478 49.9065 3.72729 49.9065 4.35882C49.9065 5.13791 49.7766 5.84027 49.5169 6.4659C49.2572 7.08563 48.8884 7.61977 48.4103 8.06834C47.9322 8.511 47.3627 8.85038 46.7016 9.08646C46.0465 9.32255 45.3205 9.44059 44.5237 9.44059H42.2838L41.31 14ZM42.3989 8.88284L41.8854 8.1126H44.5326C45.3176 8.1126 45.9993 7.9562 46.5777 7.64338C47.1561 7.33056 47.6046 6.8938 47.9234 6.3331C48.2421 5.77239 48.4014 5.11725 48.4014 4.36767C48.4014 3.91911 48.31 3.54137 48.127 3.23446C47.9499 2.92164 47.6666 2.6826 47.2771 2.51734C46.8934 2.35208 46.3917 2.26945 45.772 2.26945H43.1249L43.9837 1.41069L42.3989 8.88284Z" fill="#41197F"/>
<path d="M54.4605 2.26945L55.3193 1.41069L54.071 7.30696L53.8054 6.78461H58.8163L58.5419 8.1126H53.5309L54.009 7.59026L52.7518 13.5308L52.2472 12.672H58.5507L58.2674 14H51.1317L53.9116 0.941463H61.0473L60.764 2.26945H54.4605Z" fill="#41197F"/>
<path d="M65.7298 14.1771C64.9802 14.1771 64.328 14.0708 63.7732 13.8584C63.2184 13.64 62.7905 13.3213 62.4895 12.9022C62.1885 12.4773 62.0379 11.952 62.0379 11.3263C62.0379 11.0371 62.0586 10.7715 62.0999 10.5295C62.1471 10.2876 62.2091 10.0072 62.2858 9.68848H63.7909C63.7142 9.9954 63.6581 10.2551 63.6227 10.4676C63.5932 10.68 63.5784 10.8896 63.5784 11.0962C63.5784 11.7218 63.7732 12.1644 64.1627 12.4241C64.5582 12.6838 65.1307 12.8137 65.8803 12.8137C66.5177 12.8137 67.0872 12.7281 67.5889 12.5569C68.0906 12.3799 68.4861 12.1113 68.7753 11.7513C69.0645 11.3854 69.2091 10.9161 69.2091 10.3436C69.2091 9.78292 68.9789 9.32255 68.5185 8.96252C68.0641 8.60248 67.4443 8.29557 66.6593 8.04178C66.0632 7.8411 65.5261 7.59321 65.048 7.2981C64.5759 6.99709 64.2011 6.63411 63.9237 6.20915C63.6522 5.7842 63.5164 5.29136 63.5164 4.73066C63.5164 4.09913 63.6374 3.53842 63.8794 3.04854C64.1273 2.55866 64.4696 2.14551 64.9064 1.80908C65.3432 1.47266 65.8507 1.21887 66.4292 1.0477C67.0076 0.870637 67.6332 0.782104 68.3061 0.782104C69.0556 0.782104 69.7049 0.888344 70.2538 1.10082C70.8086 1.3074 71.2365 1.61431 71.5375 2.02156C71.8385 2.42881 71.989 2.93345 71.989 3.53547C71.989 3.79516 71.9683 4.05486 71.927 4.31455C71.8857 4.57425 71.8326 4.84575 71.7677 5.12905H70.2538C70.3187 4.85755 70.3659 4.61557 70.3954 4.40309C70.4308 4.18471 70.4485 3.96928 70.4485 3.7568C70.4485 3.15478 70.2508 2.73572 69.8554 2.49964C69.4599 2.26355 68.8904 2.14551 68.1467 2.14551C67.5447 2.14551 67.0076 2.22519 66.5354 2.38454C66.0632 2.5439 65.6914 2.79474 65.4199 3.13707C65.1484 3.47349 65.0126 3.91321 65.0126 4.45621C65.0126 5.07593 65.2546 5.56286 65.7386 5.91699C66.2226 6.26522 66.8689 6.58099 67.6775 6.86429C68.309 7.08267 68.852 7.33942 69.3065 7.63453C69.7609 7.92964 70.1092 8.27786 70.3512 8.67921C70.5991 9.08056 70.723 9.54978 70.723 10.0869C70.723 10.9545 70.5017 11.6952 70.059 12.309C69.6222 12.917 69.0261 13.3803 68.2706 13.699C67.5211 14.0177 66.6741 14.1771 65.7298 14.1771Z" fill="#41197F"/>
</svg>
